<?xml version="1.0" encoding="utf-8"?>
<!-- Generator: Adobe Illustrator 21.1.0, SVG Export Plug-In . SVG Version: 6.00 Build 0)  -->
<svg version="1.1" id="Layer_1" xmlns="http://www.w3.org/2000/svg" xmlns:xlink="http://www.w3.org/1999/xlink" x="0px" y="0px"
	 viewBox="0 0 256 256" style="enable-background:new 0 0 256 256;" xml:space="preserve">
<style type="text/css">
	.st0{fill:#E9AFC7;}
	.st1{fill:#FF0000;}
</style>
<g>
	<path class="st0" d="M216.9,238.1c-4.8-10.2-9.6-20.4-14.4-30.6c-7-14.8-13.9-29.6-23.6-43c-6.3-8.7-13.5-16.4-23.3-21.3
		c-4.3-2.2-5.1-3.4-4.6-8.2c0.1-1,0.5-2.1,0.4-3.1c-0.3-2.7,1.3-3.9,3.5-4.5c3.8-1,7.7-1.8,11.4-3c3.7-1.2,7.3-2.8,10.8-4.4
		c2.1-1,2.7-2.9,1.2-5c-2.6-3.4-5-7-8.1-10c-4.7-4.6-10-8.6-15-12.9c-1.3-1.1-2.5-2.4-4-3.8c1-0.4,1.5-0.6,2-0.8
		c4.2-1.6,5-3.7,2.9-7.5c-1.2-2.1-2.9-3.9-3.9-6c-1.1-2.1-2.1-4.3-2.4-6.6c-0.8-7.2-2.2-8.8-9.5-9.5c-0.8-0.1-1.5-0.2-2.3-0.2
		c-4.4-0.3-5.7,0.5-7.6,4.4c-0.4,0.8-1.2,1.5-1.6,2.4c-0.6,1.4-1,2.8-1.5,4.2c-0.5,1.7-0.9,3.4-1.4,5c-0.3,0.9-0.8,1.7-1.2,2.5
		c0.3,0,0.6-0.1,0.9-0.1c0.7,1.8,1,3.7,2,5.2c1.5,2.3,0.4,3.8-1.2,5.2c-1,0.9-2.5,1.3-3.3,2.3c-1.1,1.3-2.3,2.9-2.4,4.5
		c-0.6,6.6-1,13.2-1.2,19.7c-0.2,5.8-1.3,11.7,2.6,17c-10.4,13.4-15.6,29-19.8,45.1c-3.4,12.9-6.5,25.8-13.6,37.3
		c-0.1,0.1,0.1,0.3,0.3,0.6c1.1-0.1,2.2-0.2,3.4-0.3c22.8-2.1,45.7-2.8,68.4,0.8c21.3,3.4,41,10.1,56.9,26.1
		C217.3,239.1,217.1,238.6,216.9,238.1z M138,95.3c-1.6,1.9-3.8,3.4-5.9,4.8c-2.2,1.5-4.6,2.7-7.1,4.1c0-3.2-0.4-6.5,3.1-8.7
		c2.9-1.9,1.3-5.1,1.8-7.7c0.1-0.8-0.1-1.7-0.2-2.8c2.3-0.3,4.8-1.7,6.9,0.6C138.8,87.9,139.7,93.3,138,95.3z M145.9,120.3
		c1.1-2,2.5-3.8,3.6-5.8c1.6-2.9,3-5.9,4.7-9.4c4.1,3.3,8.5,6.8,13.6,10.9c-7.4,3.8-14.6,7.5-22,11.3
		C144.6,124.7,144.8,122.5,145.9,120.3z"/>
	<path class="st0" d="M234.9,93.3c-16.5,0.8-30-6.1-41.9-16.6c-7.3-6.5-14.2-13.7-21-20.7c-8.6-8.9-17-18.2-27.1-25.6
		c-9.2-6.7-19.3-10.1-30.8-9.8C90.2,21.2,72,39.4,71.7,63.4c-0.1,8.9,1.9,17.5,4.3,26c3.8,13.3,8,26.6,11.4,40
		c3,11.7,3.9,23.6,1.9,35.6c-2.5,14.1-9.4,25.9-19.1,36.3c-0.9,1-1.9,3.4-1.5,3.8c1,1.1,2.8,1.8,4.4,1.9c1.1,0.1,2.6-0.7,3.5-1.6
		c12.7-13.6,20.3-29.5,21.1-48.4c0.7-14.4-2.3-28.1-6.3-41.8c-3.8-12.8-7.8-25.6-11.3-38.5c-3.5-13.3-1.5-25.8,6.7-37.1
		C92,32.2,99,27.6,108,26.2c9.4-1.4,18.3,0.2,26.8,4.4c7.8,3.8,14.4,9.4,20.6,15.4C166,56.1,176.3,66.5,187,76.4
		c7.9,7.3,17,13.1,27.5,16.2C221.2,94.6,228,95.2,234.9,93.3z"/>
	<path class="st1" d="M14.6,246.3c0.2,0.2,0.3,0.4,0.5,0.6c3.7-1.4,7.5-2.9,11.2-4.3c38.3-14.6,77.6-21.3,118.5-15.3
		c23.2,3.4,44.7,11.2,62.9,26.6c1.1,0.9,2.7,1.6,4.1,1.9c1.2,0.2,3,0.1,3.6-0.6c0.6-0.8,0.7-2.8,0.1-3.7c-1.3-2-2.9-3.8-4.7-5.3
		c-18.1-14.7-39.3-22.2-62.1-25.8c-19.6-3.1-39.3-2.8-58.9,0.1c-24.1,3.5-47.2,10.4-68.8,22C18.8,243.7,16.7,245.1,14.6,246.3z"/>
	<path class="st0" d="M62.4,133.8c0.1,11.3,10.9,22.8,22,23.6c3.4,0.2,3.8-0.1,3.7-3.6c-0.3-11.3-10.4-22.4-21.7-23.7
		C62.7,129.7,62.3,130,62.4,133.8z"/>
	<path class="st0" d="M93.7,111.4c0.2,1.6,0.4,3.2,0.6,4.8c0.3,2.5,1.7,2.9,4,2.2c11.1-3.4,19.1-17.3,16.5-28.6
		c-0.6-2.7-1.7-3.1-4.2-2.3C101.3,90.6,94,100.8,93.7,111.4z"/>
	<path class="st0" d="M103.2,46c-8.6-2.6-20.7,7-20,15.8c0.1,0.7,1.3,1.8,2.1,1.8c4.9,0.3,8.9-1.8,12.4-5
		C101.2,55.2,103.4,51.1,103.2,46z"/>
	<path class="st0" d="M53.9,76.2c-0.1,8.3,8.1,17,16,17.4c1.8,0.1,2.6-0.4,2.7-2.3c0.2-7.9-7.8-16.8-15.8-17.5
		C54.8,73.7,53.6,74.1,53.9,76.2z"/>
	<path class="st0" d="M144.8,50.8c-0.1-7.7-6.5-15.6-14-17.3c-2.4-0.5-3.3,0.2-3.4,2.6C127,43.6,133.2,52,140.7,54
		C144.3,54.9,144.9,54.5,144.8,50.8z"/>
	<path class="st0" d="M78,36.1c6.2-8.1,2.4-22.3-6.6-25.5C65.1,18,68.6,32.2,78,36.1z"/>
	<path class="st0" d="M132.3,0.1c-8-1.3-17,6.8-16.9,14.7c0,1.7,0.8,2.1,2.3,2.1C125.7,16.8,133.3,8.2,132.3,0.1z"/>
	<path class="st0" d="M168.6,82.7c5.7-5,3.2-19.8-5.2-22.7C157.5,66.4,160.5,79.5,168.6,82.7z"/>
	<path class="st0" d="M161.9,39.8c4.3,8.1,20.1,7.8,23.3,1.3C179.8,33.8,167.3,33.1,161.9,39.8z"/>
	<path class="st0" d="M205.6,70.7c-3.4-5.1-11.4-5.6-15.6-1C192.6,74.8,203.1,75.2,205.6,70.7z"/>
	<path class="st0" d="M226.7,89.5c3.9,3.8,13.9,0.2,14.6-5C236.4,81,228.6,83.7,226.7,89.5z"/>
	<path class="st0" d="M206.7,101.9c2.4-5.6-1.7-12.8-7.7-13.5C196.5,94,200.6,101.1,206.7,101.9z"/>
	<path class="st0" d="M234.9,93.3c-6.9,1.9-13.7,1.3-20.4-0.7C204,89.5,195,83.8,187,76.4C176.3,66.5,166,56.1,155.4,46
		c-6.2-6-12.8-11.6-20.6-15.4c-8.5-4.1-17.4-5.7-26.8-4.4c-9,1.3-16,6-21.3,13.3C78.5,50.8,76.4,63.3,80,76.6
		c3.5,12.9,7.5,25.7,11.3,38.5c4,13.6,7,27.4,6.3,41.8c-0.9,18.8-8.4,34.7-21.1,48.4c-0.8,0.9-2.3,1.7-3.5,1.6
		c-1.5-0.1-3.3-0.9-4.4-1.9c-0.4-0.4,0.6-2.8,1.5-3.8c9.8-10.3,16.7-22.1,19.1-36.3c2.1-12,1.2-23.9-1.9-35.6
		c-3.5-13.4-7.7-26.7-11.4-40c-2.4-8.5-4.4-17.1-4.3-26c0.3-23.9,18.6-42.2,42.4-42.9c11.5-0.3,21.6,3.1,30.8,9.8
		c10.1,7.4,18.4,16.6,27.1,25.6c6.8,7.1,13.7,14.2,21,20.7C204.9,87.2,218.4,94.1,234.9,93.3z"/>
	<path class="st0" d="M14.6,246.3c2.1-1.3,4.1-2.7,6.3-3.8c21.6-11.6,44.7-18.4,68.8-22c19.6-2.9,39.3-3.2,58.9-0.1
		c22.8,3.6,43.9,11.1,62.1,25.8c1.8,1.5,3.4,3.3,4.7,5.3c0.6,0.9,0.6,2.9-0.1,3.7c-0.6,0.7-2.4,0.9-3.6,0.6c-1.4-0.3-3-1-4.1-1.9
		c-18.2-15.4-39.7-23.2-62.9-26.6c-40.9-6-80.2,0.7-118.5,15.3c-3.7,1.4-7.5,2.9-11.2,4.3C14.9,246.8,14.8,246.6,14.6,246.3z"/>
	<path class="st0" d="M62.4,133.8c0-3.8,0.3-4.1,4-3.7c11.3,1.3,21.4,12.4,21.7,23.7c0.1,3.5-0.2,3.8-3.7,3.6
		C73.3,156.6,62.5,145.1,62.4,133.8z"/>
	<path class="st0" d="M93.7,111.4c0.3-10.6,7.6-20.8,17-23.8c2.5-0.8,3.6-0.4,4.2,2.3c2.6,11.3-5.4,25.2-16.5,28.6
		c-2.4,0.7-3.7,0.3-4-2.2C94.1,114.6,93.9,113,93.7,111.4z"/>
	<path class="st0" d="M103.2,46c0.2,5.1-2,9.2-5.6,12.6c-3.4,3.3-7.5,5.3-12.4,5c-0.8,0-2-1.1-2.1-1.8C82.5,53.1,94.6,43.4,103.2,46
		z"/>
	<path class="st0" d="M53.9,76.2c-0.3-2.1,0.9-2.5,2.9-2.4c7.9,0.6,16,9.5,15.8,17.5c0,1.9-0.9,2.4-2.7,2.3
		C62,93.2,53.9,84.5,53.9,76.2z"/>
	<path class="st0" d="M144.8,50.8c0,3.7-0.5,4.2-4.2,3.2c-7.5-2-13.6-10.4-13.3-17.9c0.1-2.4,1-3.1,3.4-2.6
		C138.3,35.1,144.8,43,144.8,50.8z"/>
	<path class="st0" d="M78,36.1c-9.3-3.9-12.9-18-6.6-25.5C80.4,13.8,84.2,28,78,36.1z"/>
	<path class="st0" d="M132.3,0.1c1,8.1-6.7,16.7-14.6,16.8c-1.5,0-2.3-0.4-2.3-2.1C115.3,6.9,124.4-1.1,132.3,0.1z"/>
	<path class="st0" d="M168.6,82.7c-8.1-3.2-11.1-16.2-5.2-22.7C171.7,62.9,174.3,77.7,168.6,82.7z"/>
	<path class="st0" d="M161.9,39.8c5.4-6.7,17.9-6,23.3,1.3C182,47.6,166.2,47.9,161.9,39.8z"/>
	<path class="st0" d="M205.6,70.7c-2.6,4.5-13,4.1-15.6-1C194.2,65.1,202.3,65.6,205.6,70.7z"/>
	<path class="st0" d="M226.7,89.5c1.8-5.8,9.6-8.5,14.6-5C240.6,89.7,230.6,93.3,226.7,89.5z"/>
	<path class="st0" d="M206.7,101.9c-6.1-0.9-10.2-8-7.7-13.5C205,89.2,209.1,96.3,206.7,101.9z"/>
</g>
</svg>
